<svg width="26" height="24" viewBox="0 0 26 24" fill="none" xmlns="http://www.w3.org/2000/svg">
<path d="M17.1553 7.3043L17.0375 7.07193L14.0152 1.11043L17.1553 7.3043ZM17.1553 7.3043L17.4132 7.34089M17.1553 7.3043L17.4132 7.34089M17.4132 7.34089L24.1769 8.30033C24.177 8.30033 24.177 8.30034 24.1771 8.30035C24.6629 8.36948 25.0567 8.69849 25.2038 9.13894C25.3506 9.57875 25.2301 10.0639 24.8864 10.3898L24.8858 10.3904L19.9917 15.0472L19.7976 15.2319L19.8439 15.4958L20.9964 22.0656C21.0757 22.5191 20.8869 22.9831 20.4963 23.263C20.2712 23.419 20.0055 23.5 19.7414 23.5C19.5375 23.5 19.3329 23.4523 19.1469 23.3566L19.1464 23.3563L13.1013 20.2535L12.8726 20.1362L12.6441 20.2538L6.61683 23.3565C6.18779 23.5772 5.66304 23.5409 5.26806 23.2632C4.87797 22.9858 4.68778 22.5202 4.76712 22.0656C4.76713 22.0655 4.76715 22.0654 4.76717 22.0653L5.92161 15.4957L5.968 15.2317L5.77381 15.0469L0.87973 10.3901L0.879629 10.3901C0.534691 10.062 0.415014 9.57803 0.56125 9.14122L0.561391 9.14079C0.708819 8.69911 1.10339 8.36927 1.58639 8.30033C1.58646 8.30032 1.58652 8.30031 1.58658 8.3003L8.33423 7.34087L8.59205 7.30421M17.4132 7.34089L8.59205 7.30421M8.59205 7.30421L8.70981 7.07193M8.59205 7.30421L8.70981 7.07193M8.70981 7.07193L11.7321 1.11043M8.70981 7.07193L11.7321 1.11043M11.7321 1.11043L11.7322 1.11017C11.9246 0.731426 12.3649 0.5 12.8736 0.5C13.3824 0.5 13.8226 0.731426 14.0151 1.11017L11.7321 1.11043Z" stroke="#FFC107"/>
</svg>
